<svg xmlns="http://www.w3.org/2000/svg" width="21.296" height="25.559" viewBox="0 0 21.296 25.559">
  <g id="apple-icon" transform="translate(-95.977 -64)">
    <path id="Path_9" data-name="Path 9" d="M111.789,154.965a4.775,4.775,0,0,1,3.154,1.357,6.5,6.5,0,0,0-1.577,2.01,6.72,6.72,0,0,0-.679,3.507,6.967,6.967,0,0,0,1.2,3.447,6.489,6.489,0,0,0,2,1.883,16.764,16.764,0,0,1-1.118,2.03c-.559.872-2.03,3.194-3.46,3.207h-.027a2.715,2.715,0,0,1-1.284-.373,6.082,6.082,0,0,0-2.888-.705h-.04a6.343,6.343,0,0,0-2.921.705,2.9,2.9,0,0,1-1.324.379h-.027c-1.3-.013-2.5-1.617-3.38-3.008a15.3,15.3,0,0,1-2.322-6.594,8.383,8.383,0,0,1,.9-5.1,6.359,6.359,0,0,1,2.023-2.036,4.431,4.431,0,0,1,2.276-.692,6.352,6.352,0,0,1,2.243.519,7.115,7.115,0,0,0,2.509.572,6.072,6.072,0,0,0,2.3-.546,6.092,6.092,0,0,1,2.449-.559m0-1.065c-2.236,0-3.181,1.1-4.738,1.1-1.6,0-2.815-1.091-4.751-1.091a6.456,6.456,0,0,0-5.2,3.221c-1.8,2.861-1.5,8.251,1.424,12.843,1.045,1.644,2.442,3.487,4.272,3.507h.033c1.59,0,2.063-1.071,4.252-1.085h.033c2.156,0,2.589,1.078,4.172,1.078h.033c1.83-.02,3.3-2.063,4.345-3.7a18.2,18.2,0,0,0,1.61-3.1,5.693,5.693,0,0,1-.725-10.174,6.257,6.257,0,0,0-4.758-2.6Z" transform="translate(0 -83.918)" fill="#fff"/>
    <path id="Path_10" data-name="Path 10" d="M253.723,65.364a5.246,5.246,0,0,1-.972,2.143,4.165,4.165,0,0,1-1.916,1.4,3.616,3.616,0,0,1,.16-.612,5.253,5.253,0,0,1,.852-1.537,5.091,5.091,0,0,1,1.877-1.4M254.807,64a5.819,5.819,0,0,0-3.793,2.1,5.293,5.293,0,0,0-1.238,4.046h.106a4.94,4.94,0,0,0,3.713-2A5.668,5.668,0,0,0,254.807,64Z" transform="translate(-143.511)" fill="#fff"/>
  </g>
</svg>
