<svg xmlns="http://www.w3.org/2000/svg" width="60" height="60" viewBox="0 0 60 60">
  <g id="dish-icon" transform="translate(-849 -856)">
    <circle id="Ellipse_6" data-name="Ellipse 6" cx="30" cy="30" r="30" transform="translate(849 856)" fill="#fddae1"/>
    <g id="_3558101_cook_dish_food_menu_rice_icon" data-name="3558101_cook_dish_food_menu_rice_icon" transform="translate(862.856 869.856)">
      <g id="Group_12" data-name="Group 12" transform="translate(1.489 13.701)">
        <path id="Path_11" data-name="Path 11" d="M31.4,54h0A5.159,5.159,0,0,1,26.4,57.908H11.005A5.159,5.159,0,0,1,6,54H31.4Z" transform="translate(-4.046 -40.81)" fill="#dfb28b"/>
        <path id="Path_12" data-name="Path 12" d="M2.977,50H30.334a.977.977,0,0,1,.977.977h0a.977.977,0,0,1-.977.977H2.977A.977.977,0,0,1,2,50.977H2A.977.977,0,0,1,2.977,50Z" transform="translate(-2 -38.764)" fill="#dfb28b"/>
        <path id="Path_13" data-name="Path 13" d="M4.01,38.236v-.064a3.471,3.471,0,0,1,1.022-2.463,4.77,4.77,0,0,0,.791-.935c.5-.86.309-2.233.97-2.958s2.054-.667,2.854-1.244,1.176-1.913,2.083-2.314,2.138.221,3.113.016C15.8,28.072,16.68,27,17.683,27s1.887,1.072,2.841,1.273c.975.206,2.216-.413,3.113-.016S24.92,30,25.72,30.571s2.187.511,2.854,1.244.466,2.1.97,2.958a2.686,2.686,0,0,0,.582.675,3.534,3.534,0,0,1,1.236,2.659v.128Z" transform="translate(-3.028 -27)" fill="#e6e9ed"/>
        <path id="Path_14" data-name="Path 14" d="M6.356,54.977h24.69A5.141,5.141,0,0,0,31.4,54H6A5.141,5.141,0,0,0,6.356,54.977Z" transform="translate(-4.046 -40.81)" fill="#cf9e76"/>
        <path id="Path_15" data-name="Path 15" d="M31.361,48.849A3.417,3.417,0,0,0,31.25,48H4.135a3.489,3.489,0,0,0-.126.913v.064H31.361Z" transform="translate(-3.028 -37.741)" fill="#ccd1d9"/>
      </g>
      <g id="Group_13" data-name="Group 13" transform="translate(1 1)">
        <path id="Path_16" data-name="Path 16" d="M30.3,37.321a4.036,4.036,0,0,0-1.389-2.753,2.222,2.222,0,0,1-.481-.553,3.764,3.764,0,0,1-.337-1.2,3.5,3.5,0,0,0-.693-1.841,3.516,3.516,0,0,0-1.78-.87,3.735,3.735,0,0,1-1.149-.442,3.731,3.731,0,0,1-.783-.951A3.52,3.52,0,0,0,22.3,27.3a3.507,3.507,0,0,0-1.966-.075,3.776,3.776,0,0,1-1.244.06A3.689,3.689,0,0,1,18,26.738,3.58,3.58,0,0,0,16.144,26a3.589,3.589,0,0,0-1.859.737,3.676,3.676,0,0,1-1.083.546,3.741,3.741,0,0,1-1.245-.06,3.493,3.493,0,0,0-1.965.075A3.515,3.515,0,0,0,8.6,28.713a3.71,3.71,0,0,1-.783.951,3.721,3.721,0,0,1-1.15.442,3.516,3.516,0,0,0-1.78.87A3.5,3.5,0,0,0,4.2,32.816a3.761,3.761,0,0,1-.337,1.2,4.412,4.412,0,0,1-.714.836A3.984,3.984,0,0,0,2,37.319a1.462,1.462,0,0,0,.467,2.848h.613a5.637,5.637,0,0,0,5.37,3.908H23.84a5.637,5.637,0,0,0,5.37-3.908h.613a1.461,1.461,0,0,0,.473-2.846ZM3.837,35.544a5.154,5.154,0,0,0,.869-1.035,4.521,4.521,0,0,0,.456-1.525,2.8,2.8,0,0,1,.453-1.352,2.819,2.819,0,0,1,1.315-.585,4.456,4.456,0,0,0,1.464-.592,4.467,4.467,0,0,0,1.024-1.2,2.823,2.823,0,0,1,.97-1.063,2.8,2.8,0,0,1,1.426,0,4.506,4.506,0,0,0,1.591.05,4.4,4.4,0,0,0,1.405-.678,2.823,2.823,0,0,1,1.334-.584,2.823,2.823,0,0,1,1.334.584,4.4,4.4,0,0,0,1.406.678,4.481,4.481,0,0,0,1.591-.05,2.808,2.808,0,0,1,1.425,0,2.809,2.809,0,0,1,.971,1.063,4.45,4.45,0,0,0,1.024,1.2,4.453,4.453,0,0,0,1.463.592,2.812,2.812,0,0,1,1.315.585,2.806,2.806,0,0,1,.453,1.352,4.524,4.524,0,0,0,.456,1.525,3.2,3.2,0,0,0,.682.8,3.078,3.078,0,0,1,1.044,1.932H2.993A3,3,0,0,1,3.837,35.544Zm20,7.554H8.448a4.661,4.661,0,0,1-4.331-2.931H28.171A4.661,4.661,0,0,1,23.84,43.1Zm5.982-3.908H2.466a.489.489,0,0,1,0-.977H29.822a.489.489,0,0,1,0,.977Z" transform="translate(-1 -13.787)"/>
        <rect id="Rectangle_17" data-name="Rectangle 17" width="0.868" height="0.868" transform="translate(5.996 21.612)"/>
        <rect id="Rectangle_18" data-name="Rectangle 18" width="0.868" height="0.868" transform="translate(7.731 19.009)"/>
        <rect id="Rectangle_19" data-name="Rectangle 19" width="0.868" height="0.868" transform="translate(9.466 17.274)"/>
        <rect id="Rectangle_20" data-name="Rectangle 20" width="0.868" height="0.868" transform="translate(11.201 19.877)"/>
        <rect id="Rectangle_21" data-name="Rectangle 21" width="0.868" height="0.868" transform="translate(13.804 21.612)"/>
        <rect id="Rectangle_22" data-name="Rectangle 22" width="0.868" height="0.868" transform="translate(15.539 15.539)"/>
        <rect id="Rectangle_23" data-name="Rectangle 23" width="0.868" height="0.868" transform="translate(12.937 17.274)"/>
        <rect id="Rectangle_24" data-name="Rectangle 24" width="0.868" height="0.868" transform="translate(16.407 19.877)"/>
        <rect id="Rectangle_25" data-name="Rectangle 25" width="1.735" height="0.868" transform="translate(18.142 17.274)"/>
        <rect id="Rectangle_26" data-name="Rectangle 26" width="0.868" height="0.868" transform="translate(11.201 15.539)"/>
        <rect id="Rectangle_27" data-name="Rectangle 27" width="0.868" height="0.868" transform="translate(19.009 21.612)"/>
        <rect id="Rectangle_28" data-name="Rectangle 28" width="0.868" height="0.868" transform="translate(20.745 19.877)"/>
        <rect id="Rectangle_29" data-name="Rectangle 29" width="0.868" height="0.868" transform="translate(25.082 21.612)"/>
        <rect id="Rectangle_30" data-name="Rectangle 30" width="1.735" height="0.868" transform="translate(21.612 17.274)"/>
        <rect id="Rectangle_31" data-name="Rectangle 31" width="0.868" height="0.868" transform="translate(17.274 15.539)"/>
        <path id="Path_17" data-name="Path 17" d="M32.127,10.01A2.883,2.883,0,0,0,31,12.236h.977a1.944,1.944,0,0,1,.826-1.52A2.883,2.883,0,0,0,33.931,8.49,2.884,2.884,0,0,0,32.8,6.264a1.944,1.944,0,0,1-.827-1.521A1.94,1.94,0,0,1,32.8,3.225,2.882,2.882,0,0,0,33.931,1h-.977a1.94,1.94,0,0,1-.826,1.519A2.882,2.882,0,0,0,31,4.743,2.883,2.883,0,0,0,32.128,6.97a1.943,1.943,0,0,1,.826,1.52A1.943,1.943,0,0,1,32.127,10.01Z" transform="translate(-16.345 -1)"/>
        <path id="Path_18" data-name="Path 18" d="M21.127,8.264A2.883,2.883,0,0,0,20,10.49a2.883,2.883,0,0,0,1.128,2.226,1.943,1.943,0,0,1,.826,1.52h.977A2.883,2.883,0,0,0,21.8,12.01a1.943,1.943,0,0,1-.827-1.52A1.944,1.944,0,0,1,21.8,8.97a2.883,2.883,0,0,0,1.128-2.226A2.882,2.882,0,0,0,21.8,4.519,1.94,1.94,0,0,1,20.977,3H20a2.882,2.882,0,0,0,1.128,2.225,1.94,1.94,0,0,1,.826,1.519A1.944,1.944,0,0,1,21.127,8.264Z" transform="translate(-10.718 -2.023)"/>
        <path id="Path_19" data-name="Path 19" d="M11.127,19.01A2.883,2.883,0,0,0,10,21.236h.977a1.944,1.944,0,0,1,.826-1.52,2.76,2.76,0,0,0,0-4.451,1.944,1.944,0,0,1-.827-1.521,1.94,1.94,0,0,1,.826-1.519A2.882,2.882,0,0,0,12.931,10h-.977a1.94,1.94,0,0,1-.826,1.519,2.759,2.759,0,0,0,0,4.451,1.812,1.812,0,0,1,0,3.04Z" transform="translate(-5.603 -5.603)"/>
        <path id="Path_20" data-name="Path 20" d="M44.127,12.01A2.883,2.883,0,0,0,43,14.236h.977a1.944,1.944,0,0,1,.826-1.52,2.883,2.883,0,0,0,1.128-2.226A2.884,2.884,0,0,0,44.8,8.264a1.944,1.944,0,0,1-.827-1.521A1.94,1.94,0,0,1,44.8,5.225,2.882,2.882,0,0,0,45.931,3h-.977a1.94,1.94,0,0,1-.826,1.519A2.882,2.882,0,0,0,43,6.743,2.883,2.883,0,0,0,44.128,8.97a1.943,1.943,0,0,1,.826,1.52A1.943,1.943,0,0,1,44.127,12.01Z" transform="translate(-22.483 -2.023)"/>
      </g>
    </g>
  </g>
</svg>
