<svg xmlns="http://www.w3.org/2000/svg" width="25" height="19" viewBox="0 0 25 19">
  <path id="dumbell-circle" d="M30.23,13.5H25.77a3.167,3.167,0,0,0-3.088,3.24v2.52H19.938V16.74A3.167,3.167,0,0,0,16.85,13.5H12.39a3.167,3.167,0,0,0-3.08,3.24V28.26a3.167,3.167,0,0,0,3.08,3.24h4.46a3.167,3.167,0,0,0,3.088-3.24V25.74h2.745v2.52A3.167,3.167,0,0,0,25.77,31.5h4.46a3.167,3.167,0,0,0,3.08-3.24V16.74a3.167,3.167,0,0,0-3.08-3.24Zm1.021,14.76a1.109,1.109,0,0,1-.293.772,1.006,1.006,0,0,1-.728.325H25.77a1.056,1.056,0,0,1-1.029-1.08v-3.6a1.056,1.056,0,0,0-1.029-1.08h-4.8a1.056,1.056,0,0,0-1.029,1.08v3.6a1.056,1.056,0,0,1-1.029,1.08H12.39a1.056,1.056,0,0,1-1.021-1.08V16.74a1.109,1.109,0,0,1,.293-.772,1.006,1.006,0,0,1,.728-.325h4.46a1.056,1.056,0,0,1,1.029,1.08v3.6a1.056,1.056,0,0,0,1.029,1.08h4.8a1.056,1.056,0,0,0,1.029-1.08v-3.6a1.056,1.056,0,0,1,1.029-1.08h4.46a1.056,1.056,0,0,1,1.021,1.08Z" transform="translate(-8.81 -13)" fill="#ff6b01" stroke="#ff6b01" stroke-width="1"/>
</svg>
