<svg xmlns="http://www.w3.org/2000/svg" width="60" height="60" viewBox="0 0 60 60">
  <g id="timer-icon" transform="translate(-644 -856)">
    <circle id="Ellipse_6" data-name="Ellipse 6" cx="30" cy="30" r="30" transform="translate(644 856)" fill="rgba(15,212,181,0.38)"/>
    <path id="Icon_open-timer" data-name="Icon open-timer" d="M6.727,0V3.364h3.364v.1A11.782,11.782,0,1,0,23.545,15.136a11.425,11.425,0,0,0-.841-4.2L19.643,12.21a8.093,8.093,0,0,1,.538,2.96,8.409,8.409,0,1,1-8.409-8.409,8.222,8.222,0,0,1,2.96.538l1.144-3.162A14.084,14.084,0,0,0,13.454,3.6V3.4h3.364V.034H6.727ZM23.545,3.9S11.268,13.353,10.629,13.992a1.644,1.644,0,0,0,0,2.321,1.587,1.587,0,0,0,2.321,0C13.622,15.641,23.579,3.9,23.579,3.9Z" transform="translate(662.421 872.546)" fill="#14c59c"/>
  </g>
</svg>
