<svg xmlns="http://www.w3.org/2000/svg" xmlns:xlink="http://www.w3.org/1999/xlink" width="132.429" height="19.723" viewBox="0 0 132.429 19.723">
  <defs>
    <linearGradient id="linear-gradient" y1="0.176" x2="0.557" y2="0.755" gradientUnits="objectBoundingBox">
      <stop offset="0" stop-color="#ff6b01"/>
      <stop offset="1" stop-color="#ff4f51"/>
    </linearGradient>
  </defs>
  <g id="logo-path" transform="translate(-321.55 -33.975)">
    <path id="Path_21" data-name="Path 21" d="M5.957-14.271v3.462h5.9v3.218h-5.9v3.755h6.676V-.5H1.55V-17.611H12.633v3.34Zm27.888.024a5.869,5.869,0,0,1,4.266,1.536A5.664,5.664,0,0,1,39.7-8.445V-.5H35.314V-7.884a2.72,2.72,0,0,0-.735-2.036,2.768,2.768,0,0,0-2.023-.719,2.768,2.768,0,0,0-2.023.719A2.72,2.72,0,0,0,29.8-7.884V-.5H25.417V-7.884a2.72,2.72,0,0,0-.735-2.036,2.768,2.768,0,0,0-2.023-.719,2.768,2.768,0,0,0-2.023.719A2.72,2.72,0,0,0,19.9-7.884V-.5H15.494V-14.1H19.9v1.707a4.673,4.673,0,0,1,1.753-1.353,5.776,5.776,0,0,1,2.449-.5,6.232,6.232,0,0,1,2.9.658,4.866,4.866,0,0,1,2,1.877,5.67,5.67,0,0,1,2.036-1.829A5.746,5.746,0,0,1,33.845-14.247Zm27.3,0a5.869,5.869,0,0,1,4.266,1.536,5.664,5.664,0,0,1,1.585,4.266V-.5H62.609V-7.884a2.72,2.72,0,0,0-.735-2.036,2.768,2.768,0,0,0-2.023-.719,2.768,2.768,0,0,0-2.023.719,2.72,2.72,0,0,0-.735,2.036V-.5H52.712V-7.884a2.72,2.72,0,0,0-.735-2.036,2.768,2.768,0,0,0-2.023-.719,2.768,2.768,0,0,0-2.023.719A2.72,2.72,0,0,0,47.2-7.884V-.5H42.789V-14.1H47.2v1.707a4.673,4.673,0,0,1,1.753-1.353,5.776,5.776,0,0,1,2.449-.5,6.232,6.232,0,0,1,2.9.658,4.866,4.866,0,0,1,2,1.877,5.67,5.67,0,0,1,2.036-1.829A5.746,5.746,0,0,1,61.14-14.247Zm8.067,6.924A7.764,7.764,0,0,1,70.045-11a6.033,6.033,0,0,1,2.281-2.438,6.211,6.211,0,0,1,3.222-.853,5.794,5.794,0,0,1,2.668.585,4.47,4.47,0,0,1,1.766,1.536V-14.1h4.407V-.5H79.981V-2.423A4.675,4.675,0,0,1,78.19-.887,5.794,5.794,0,0,1,75.522-.3a6.1,6.1,0,0,1-3.2-.865,6.1,6.1,0,0,1-2.281-2.462A7.837,7.837,0,0,1,69.208-7.323ZM79.981-7.3a3.3,3.3,0,0,0-.915-2.462,3.056,3.056,0,0,0-2.229-.9,3.078,3.078,0,0,0-2.229.89,3.26,3.26,0,0,0-.915,2.45,3.342,3.342,0,0,0,.915,2.475,3.035,3.035,0,0,0,2.229.914,3.056,3.056,0,0,0,2.229-.9A3.3,3.3,0,0,0,79.981-7.3Zm14.82-3.34H92.43V-.5H88.023V-10.639h-1.6V-14.1h1.6v-.39a4.75,4.75,0,0,1,1.521-3.815A6.677,6.677,0,0,1,94-19.611q.49,0,.722.024v3.535a2.645,2.645,0,0,0-1.778.341,1.818,1.818,0,0,0-.515,1.487v.122H94.8Zm4.279-4.876a2.763,2.763,0,0,1-1.894-.646,2.043,2.043,0,0,1-.735-1.6,2.069,2.069,0,0,1,.735-1.621,2.763,2.763,0,0,1,1.894-.646,2.726,2.726,0,0,1,1.869.646,2.069,2.069,0,0,1,.735,1.621,2.043,2.043,0,0,1-.735,1.6A2.726,2.726,0,0,1,99.08-15.515Zm2.191,1.414V-.5H96.864V-14.1ZM112.483-4.032V-.5H110.24A5.7,5.7,0,0,1,106.5-1.606a4.445,4.445,0,0,1-1.34-3.62v-5.412H103.41V-14.1h1.753v-3.316h4.407V-14.1h2.887v3.462H109.57v5.461a1.106,1.106,0,0,0,.309.878,1.571,1.571,0,0,0,1.031.268Zm8.3,3.73a8.679,8.679,0,0,1-3.351-.609,5.7,5.7,0,0,1-2.32-1.67,4.255,4.255,0,0,1-.954-2.377h4.356a1.568,1.568,0,0,0,.7,1.146,2.561,2.561,0,0,0,1.521.439,2.266,2.266,0,0,0,1.276-.3.921.921,0,0,0,.451-.792.918.918,0,0,0-.644-.865,13.557,13.557,0,0,0-2.088-.622,20.454,20.454,0,0,1-2.577-.719,4.459,4.459,0,0,1-1.778-1.195,3.142,3.142,0,0,1-.747-2.206,3.6,3.6,0,0,1,.683-2.133,4.559,4.559,0,0,1,2.01-1.524,8.084,8.084,0,0,1,3.157-.561,6.572,6.572,0,0,1,4.266,1.268,4.847,4.847,0,0,1,1.791,3.364h-4.072a1.64,1.64,0,0,0-.657-1.121,2.371,2.371,0,0,0-1.456-.414,2.1,2.1,0,0,0-1.186.28.881.881,0,0,0-.412.768.941.941,0,0,0,.657.878,10.974,10.974,0,0,0,2.049.585,23.362,23.362,0,0,1,2.6.768A4.488,4.488,0,0,1,125.821-6.7a3.331,3.331,0,0,1,.786,2.255,3.448,3.448,0,0,1-.709,2.133,4.664,4.664,0,0,1-2.036,1.475A8.18,8.18,0,0,1,120.782-.3Zm10.593,0a2.763,2.763,0,0,1-1.894-.646,2.043,2.043,0,0,1-.735-1.6,2.1,2.1,0,0,1,.735-1.633,2.731,2.731,0,0,1,1.894-.658,2.7,2.7,0,0,1,1.869.658,2.1,2.1,0,0,1,.735,1.633,2.043,2.043,0,0,1-.735,1.6A2.725,2.725,0,0,1,131.375-.3Z" transform="translate(320 54)" fill="url(#linear-gradient)"/>
  </g>
</svg>
